<mxfile host="65bd71144e">
    <diagram name="Page-1" id="YVVdXwciX_kCXgLM4vlG">
        <mxGraphModel dx="1302" dy="315" grid="1" gridSize="10" guides="1" tooltips="1" connect="1" arrows="1" fold="1" page="1" pageScale="1" pageWidth="850" pageHeight="1100" background="#ffffff" math="0" shadow="0">
            <root>
                <mxCell id="0"/>
                <mxCell id="1" parent="0"/>
                <mxCell id="36" value="" style="rounded=0;whiteSpace=wrap;html=1;strokeColor=#333333;fillColor=#B3B3B3;" vertex="1" parent="1">
                    <mxGeometry x="160" y="750" width="100" height="130" as="geometry"/>
                </mxCell>
                <mxCell id="23" value="" style="rounded=0;whiteSpace=wrap;html=1;strokeColor=#333333;fillColor=#B3B3B3;" vertex="1" parent="1">
                    <mxGeometry x="-370" y="810" width="60" height="61.25" as="geometry"/>
                </mxCell>
                <mxCell id="3TpX2DsgrMbCzZT64vuU-1" value="" style="rounded=0;whiteSpace=wrap;html=1;strokeColor=#333333;fillColor=#B3B3B3;" parent="1" vertex="1">
                    <mxGeometry x="360" y="410" width="150" height="560" as="geometry"/>
                </mxCell>
                <mxCell id="3TpX2DsgrMbCzZT64vuU-4" value="" style="rounded=0;whiteSpace=wrap;html=1;fillColor=#4D4D4D;strokeColor=none;shadow=1;" parent="1" vertex="1">
                    <mxGeometry x="360" y="725" width="60" height="40" as="geometry"/>
                </mxCell>
                <mxCell id="3TpX2DsgrMbCzZT64vuU-5" value="" style="rounded=0;whiteSpace=wrap;html=1;fillColor=#4D4D4D;strokeColor=none;shadow=1;" parent="1" vertex="1">
                    <mxGeometry x="440" y="820" width="60" height="60" as="geometry"/>
                </mxCell>
                <mxCell id="3TpX2DsgrMbCzZT64vuU-7" value="" style="rounded=0;whiteSpace=wrap;html=1;strokeColor=#333333;fillColor=#B3B3B3;" parent="1" vertex="1">
                    <mxGeometry x="360" y="830" width="60" height="50" as="geometry"/>
                </mxCell>
                <mxCell id="3TpX2DsgrMbCzZT64vuU-8" value="" style="rounded=0;whiteSpace=wrap;html=1;strokeColor=#333333;fillColor=#B3B3B3;" parent="1" vertex="1">
                    <mxGeometry x="360" y="805" width="40" height="25" as="geometry"/>
                </mxCell>
                <mxCell id="3TpX2DsgrMbCzZT64vuU-9" value="" style="rounded=0;whiteSpace=wrap;html=1;strokeColor=#333333;fillColor=#B3B3B3;" parent="1" vertex="1">
                    <mxGeometry x="400" y="810" width="20" height="20" as="geometry"/>
                </mxCell>
                <mxCell id="3TpX2DsgrMbCzZT64vuU-11" value="" style="rounded=0;whiteSpace=wrap;html=1;fillColor=#4D4D4D;strokeColor=none;shadow=1;" parent="1" vertex="1">
                    <mxGeometry x="440" y="760" width="60" height="60" as="geometry"/>
                </mxCell>
                <mxCell id="3TpX2DsgrMbCzZT64vuU-12" value="" style="rounded=0;whiteSpace=wrap;html=1;strokeColor=#333333;fillColor=#B3B3B3;" parent="1" vertex="1">
                    <mxGeometry x="360" y="765" width="30" height="20" as="geometry"/>
                </mxCell>
                <mxCell id="3TpX2DsgrMbCzZT64vuU-13" value="" style="rounded=0;whiteSpace=wrap;html=1;strokeColor=#333333;fillColor=#B3B3B3;" parent="1" vertex="1">
                    <mxGeometry x="390" y="765" width="30" height="20" as="geometry"/>
                </mxCell>
                <mxCell id="3TpX2DsgrMbCzZT64vuU-14" value="" style="rounded=0;whiteSpace=wrap;html=1;fillColor=#4D4D4D;strokeColor=none;shadow=1;" parent="1" vertex="1">
                    <mxGeometry x="440" y="700" width="60" height="60" as="geometry"/>
                </mxCell>
                <mxCell id="3TpX2DsgrMbCzZT64vuU-15" value="" style="rounded=0;whiteSpace=wrap;html=1;fillColor=#4D4D4D;strokeColor=none;shadow=1;" parent="1" vertex="1">
                    <mxGeometry x="360" y="665" width="60" height="60" as="geometry"/>
                </mxCell>
                <mxCell id="3TpX2DsgrMbCzZT64vuU-17" value="" style="rounded=0;whiteSpace=wrap;html=1;fillColor=#4D4D4D;strokeColor=none;shadow=1;" parent="1" vertex="1">
                    <mxGeometry x="440" y="670" width="60" height="30" as="geometry"/>
                </mxCell>
                <mxCell id="3TpX2DsgrMbCzZT64vuU-19" value="" style="rounded=0;whiteSpace=wrap;html=1;strokeColor=#333333;fillColor=#B3B3B3;" parent="1" vertex="1">
                    <mxGeometry x="360" y="645" width="60" height="20" as="geometry"/>
                </mxCell>
                <mxCell id="3TpX2DsgrMbCzZT64vuU-20" value="" style="rounded=0;whiteSpace=wrap;html=1;fillColor=#4D4D4D;strokeColor=none;shadow=1;" parent="1" vertex="1">
                    <mxGeometry x="440" y="630" width="60" height="40" as="geometry"/>
                </mxCell>
                <mxCell id="3TpX2DsgrMbCzZT64vuU-21" value="" style="rounded=0;whiteSpace=wrap;html=1;fillColor=#4D4D4D;strokeColor=none;shadow=1;" parent="1" vertex="1">
                    <mxGeometry x="360" y="560" width="60" height="85" as="geometry"/>
                </mxCell>
                <mxCell id="3TpX2DsgrMbCzZT64vuU-23" value="" style="rounded=0;whiteSpace=wrap;html=1;fillColor=#4D4D4D;strokeColor=none;shadow=1;" parent="1" vertex="1">
                    <mxGeometry x="360" y="540" width="60" height="20" as="geometry"/>
                </mxCell>
                <mxCell id="3TpX2DsgrMbCzZT64vuU-25" value="" style="rounded=0;whiteSpace=wrap;html=1;fillColor=#4D4D4D;strokeColor=none;shadow=1;" parent="1" vertex="1">
                    <mxGeometry x="360" y="520" width="60" height="20" as="geometry"/>
                </mxCell>
                <mxCell id="3TpX2DsgrMbCzZT64vuU-26" value="" style="rounded=0;whiteSpace=wrap;html=1;fillColor=#4D4D4D;strokeColor=none;shadow=1;direction=south;" parent="1" vertex="1">
                    <mxGeometry x="440" y="560" width="60" height="70" as="geometry"/>
                </mxCell>
                <mxCell id="3TpX2DsgrMbCzZT64vuU-24" value="" style="rounded=0;whiteSpace=wrap;html=1;fillColor=#4D4D4D;strokeColor=none;shadow=1;" parent="1" vertex="1">
                    <mxGeometry x="440" y="540" width="60" height="20" as="geometry"/>
                </mxCell>
                <mxCell id="3TpX2DsgrMbCzZT64vuU-27" value="" style="rounded=0;whiteSpace=wrap;html=1;fillColor=#4D4D4D;strokeColor=none;shadow=1;" parent="1" vertex="1">
                    <mxGeometry x="440" y="470" width="60" height="70" as="geometry"/>
                </mxCell>
                <mxCell id="3TpX2DsgrMbCzZT64vuU-28" value="" style="rounded=0;whiteSpace=wrap;html=1;fillColor=#4D4D4D;strokeColor=none;shadow=1;" parent="1" vertex="1">
                    <mxGeometry x="360" y="450" width="60" height="70" as="geometry"/>
                </mxCell>
                <mxCell id="3TpX2DsgrMbCzZT64vuU-29" value="" style="rounded=0;whiteSpace=wrap;html=1;strokeColor=#333333;fillColor=#B3B3B3;" parent="1" vertex="1">
                    <mxGeometry x="440" y="450" width="60" height="20" as="geometry"/>
                </mxCell>
                <mxCell id="3TpX2DsgrMbCzZT64vuU-30" value="" style="rounded=0;whiteSpace=wrap;html=1;strokeColor=#333333;fillColor=#B3B3B3;" parent="1" vertex="1">
                    <mxGeometry x="440" y="410" width="70" height="40" as="geometry"/>
                </mxCell>
                <mxCell id="3TpX2DsgrMbCzZT64vuU-31" value="" style="rounded=0;whiteSpace=wrap;html=1;strokeColor=#333333;fillColor=#B3B3B3;glass=0;" parent="1" vertex="1">
                    <mxGeometry x="460" y="427.5" width="30" height="5" as="geometry"/>
                </mxCell>
                <mxCell id="3TpX2DsgrMbCzZT64vuU-54" value="" style="rounded=0;whiteSpace=wrap;html=1;strokeColor=#333333;fillColor=#B3B3B3;" parent="1" vertex="1">
                    <mxGeometry x="-110" y="500" width="70" height="15" as="geometry"/>
                </mxCell>
                <mxCell id="3TpX2DsgrMbCzZT64vuU-57" value="" style="rounded=0;whiteSpace=wrap;html=1;strokeColor=#333333;fillColor=#B3B3B3;" parent="1" vertex="1">
                    <mxGeometry x="-70" y="515" width="30" height="155" as="geometry"/>
                </mxCell>
                <mxCell id="3TpX2DsgrMbCzZT64vuU-59" value="" style="rounded=0;whiteSpace=wrap;html=1;strokeColor=#333333;fillColor=#B3B3B3;" parent="1" vertex="1">
                    <mxGeometry x="440" y="460" width="40" height="10" as="geometry"/>
                </mxCell>
                <mxCell id="3TpX2DsgrMbCzZT64vuU-60" value="" style="rounded=0;whiteSpace=wrap;html=1;strokeColor=#333333;fillColor=#B3B3B3;" parent="1" vertex="1">
                    <mxGeometry x="120" y="900" width="140" height="70" as="geometry"/>
                </mxCell>
                <mxCell id="3TpX2DsgrMbCzZT64vuU-61" value="" style="rounded=0;whiteSpace=wrap;html=1;fillColor=#4D4D4D;strokeColor=none;shadow=1;" parent="1" vertex="1">
                    <mxGeometry x="190" y="900" width="70" height="60" as="geometry"/>
                </mxCell>
                <mxCell id="3TpX2DsgrMbCzZT64vuU-62" value="" style="rounded=0;whiteSpace=wrap;html=1;fillColor=#4D4D4D;strokeColor=none;shadow=1;" parent="1" vertex="1">
                    <mxGeometry x="120" y="900" width="70" height="60" as="geometry"/>
                </mxCell>
                <mxCell id="3TpX2DsgrMbCzZT64vuU-63" value="" style="rounded=0;whiteSpace=wrap;html=1;strokeColor=#333333;fillColor=#B3B3B3;" parent="1" vertex="1">
                    <mxGeometry x="50" y="900" width="70" height="70" as="geometry"/>
                </mxCell>
                <mxCell id="3TpX2DsgrMbCzZT64vuU-64" value="" style="rounded=0;whiteSpace=wrap;html=1;strokeColor=#333333;fillColor=#B3B3B3;" parent="1" vertex="1">
                    <mxGeometry x="-400" y="880" width="450" height="90" as="geometry"/>
                </mxCell>
                <mxCell id="3TpX2DsgrMbCzZT64vuU-65" value="" style="rounded=0;whiteSpace=wrap;html=1;fillColor=#4D4D4D;strokeColor=none;shadow=1;" parent="1" vertex="1">
                    <mxGeometry x="-20" y="900" width="90" height="60" as="geometry"/>
                </mxCell>
                <mxCell id="3TpX2DsgrMbCzZT64vuU-66" value="" style="rounded=0;whiteSpace=wrap;html=1;fillColor=#4D4D4D;strokeColor=none;shadow=1;" parent="1" vertex="1">
                    <mxGeometry x="-50" y="900" width="30" height="60" as="geometry"/>
                </mxCell>
                <mxCell id="3TpX2DsgrMbCzZT64vuU-67" value="" style="rounded=0;whiteSpace=wrap;html=1;fillColor=#4D4D4D;strokeColor=none;shadow=1;" parent="1" vertex="1">
                    <mxGeometry x="-80" y="900" width="30" height="60" as="geometry"/>
                </mxCell>
                <mxCell id="3TpX2DsgrMbCzZT64vuU-69" value="" style="rounded=0;whiteSpace=wrap;html=1;strokeColor=#333333;fillColor=#B3B3B3;" parent="1" vertex="1">
                    <mxGeometry x="-130" y="900" width="20" height="60" as="geometry"/>
                </mxCell>
                <mxCell id="3TpX2DsgrMbCzZT64vuU-70" value="" style="rounded=0;whiteSpace=wrap;html=1;strokeColor=#333333;fillColor=#B3B3B3;" parent="1" vertex="1">
                    <mxGeometry x="-130" y="900" width="10" height="40" as="geometry"/>
                </mxCell>
                <mxCell id="3TpX2DsgrMbCzZT64vuU-77" value="" style="rounded=0;whiteSpace=wrap;html=1;fillColor=#4D4D4D;strokeColor=none;shadow=1;" parent="1" vertex="1">
                    <mxGeometry x="-220" y="900" width="90" height="60" as="geometry"/>
                </mxCell>
                <mxCell id="3TpX2DsgrMbCzZT64vuU-78" value="" style="rounded=0;whiteSpace=wrap;html=1;fillColor=#4D4D4D;strokeColor=none;shadow=1;" parent="1" vertex="1">
                    <mxGeometry x="-270" y="900" width="50" height="60" as="geometry"/>
                </mxCell>
                <mxCell id="3TpX2DsgrMbCzZT64vuU-79" value="" style="rounded=0;whiteSpace=wrap;html=1;fillColor=#4D4D4D;strokeColor=none;shadow=1;" parent="1" vertex="1">
                    <mxGeometry x="-300" y="900" width="30" height="60" as="geometry"/>
                </mxCell>
                <mxCell id="3TpX2DsgrMbCzZT64vuU-58" value="" style="rounded=0;whiteSpace=wrap;html=1;strokeColor=#333333;fillColor=#B3B3B3;" parent="1" vertex="1">
                    <mxGeometry x="-380" y="880" width="740" height="20" as="geometry"/>
                </mxCell>
                <mxCell id="3TpX2DsgrMbCzZT64vuU-81" value="" style="endArrow=none;html=1;rounded=0;entryX=1;entryY=0;entryDx=0;entryDy=0;exitX=1;exitY=1;exitDx=0;exitDy=0;strokeColor=#B3B3B3;" parent="1" source="3TpX2DsgrMbCzZT64vuU-58" target="3TpX2DsgrMbCzZT64vuU-58" edge="1">
                    <mxGeometry width="50" height="50" relative="1" as="geometry">
                        <mxPoint x="290" y="960" as="sourcePoint"/>
                        <mxPoint x="340" y="910" as="targetPoint"/>
                    </mxGeometry>
                </mxCell>
                <mxCell id="3TpX2DsgrMbCzZT64vuU-84" value="" style="rounded=0;whiteSpace=wrap;html=1;strokeColor=#333333;fillColor=#B3B3B3;" parent="1" vertex="1">
                    <mxGeometry x="230" y="760" width="10" height="60" as="geometry"/>
                </mxCell>
                <mxCell id="3TpX2DsgrMbCzZT64vuU-85" value="" style="rounded=0;whiteSpace=wrap;html=1;strokeColor=#333333;fillColor=#B3B3B3;" parent="1" vertex="1">
                    <mxGeometry x="-110" y="690" width="30" height="190" as="geometry"/>
                </mxCell>
                <mxCell id="3TpX2DsgrMbCzZT64vuU-87" value="" style="rounded=0;whiteSpace=wrap;html=1;strokeColor=#333333;fillColor=#B3B3B3;" parent="1" vertex="1">
                    <mxGeometry x="-400" y="870" width="250" height="10" as="geometry"/>
                </mxCell>
                <mxCell id="3TpX2DsgrMbCzZT64vuU-88" value="" style="rounded=0;whiteSpace=wrap;html=1;strokeColor=#333333;fillColor=#B3B3B3;" parent="1" vertex="1">
                    <mxGeometry x="-150" y="860" width="40" height="20" as="geometry"/>
                </mxCell>
                <mxCell id="3TpX2DsgrMbCzZT64vuU-89" value="" style="rounded=0;whiteSpace=wrap;html=1;strokeColor=#333333;fillColor=#B3B3B3;" parent="1" vertex="1">
                    <mxGeometry x="-185" y="860" width="10" height="20" as="geometry"/>
                </mxCell>
                <mxCell id="3TpX2DsgrMbCzZT64vuU-91" value="" style="rounded=0;whiteSpace=wrap;html=1;strokeColor=#333333;fillColor=#B3B3B3;" parent="1" vertex="1">
                    <mxGeometry x="-360" y="770" width="70" height="40" as="geometry"/>
                </mxCell>
                <mxCell id="3TpX2DsgrMbCzZT64vuU-90" value="" style="rounded=0;whiteSpace=wrap;html=1;fillColor=#4D4D4D;strokeColor=none;shadow=1;" parent="1" vertex="1">
                    <mxGeometry x="-360" y="780" width="60" height="100" as="geometry"/>
                </mxCell>
                <mxCell id="3TpX2DsgrMbCzZT64vuU-92" value="" style="rounded=0;whiteSpace=wrap;html=1;strokeColor=#333333;fillColor=#B3B3B3;" parent="1" vertex="1">
                    <mxGeometry x="-80" y="810" width="30" height="70" as="geometry"/>
                </mxCell>
                <mxCell id="3TpX2DsgrMbCzZT64vuU-93" value="" style="rounded=0;whiteSpace=wrap;html=1;strokeColor=#333333;fillColor=#B3B3B3;" parent="1" vertex="1">
                    <mxGeometry x="-290" y="790" width="520" height="20" as="geometry"/>
                </mxCell>
                <mxCell id="3TpX2DsgrMbCzZT64vuU-83" value="" style="rounded=0;whiteSpace=wrap;html=1;fillColor=#4D4D4D;strokeColor=none;shadow=1;" parent="1" vertex="1">
                    <mxGeometry x="170" y="800.63" width="60" height="80" as="geometry"/>
                </mxCell>
                <mxCell id="3TpX2DsgrMbCzZT64vuU-94" value="" style="rounded=0;whiteSpace=wrap;html=1;strokeColor=#333333;fillColor=#B3B3B3;" parent="1" vertex="1">
                    <mxGeometry x="-410" y="670" width="370" height="20" as="geometry"/>
                </mxCell>
                <mxCell id="3TpX2DsgrMbCzZT64vuU-95" value="" style="rounded=0;whiteSpace=wrap;html=1;strokeColor=#333333;fillColor=#B3B3B3;" parent="1" vertex="1">
                    <mxGeometry x="20" y="750" width="210" height="40" as="geometry"/>
                </mxCell>
                <mxCell id="3TpX2DsgrMbCzZT64vuU-96" value="" style="rounded=0;whiteSpace=wrap;html=1;strokeColor=#333333;fillColor=#B3B3B3;" parent="1" vertex="1">
                    <mxGeometry x="-370" y="620" width="60" height="50" as="geometry"/>
                </mxCell>
                <mxCell id="3TpX2DsgrMbCzZT64vuU-97" value="" style="rounded=0;whiteSpace=wrap;html=1;strokeColor=#333333;fillColor=#B3B3B3;" parent="1" vertex="1">
                    <mxGeometry x="-380" y="620" width="10" height="50" as="geometry"/>
                </mxCell>
                <mxCell id="3TpX2DsgrMbCzZT64vuU-98" value="" style="rounded=0;whiteSpace=wrap;html=1;strokeColor=#333333;fillColor=#B3B3B3;" parent="1" vertex="1">
                    <mxGeometry x="-260" y="690" width="50" height="50" as="geometry"/>
                </mxCell>
                <mxCell id="3TpX2DsgrMbCzZT64vuU-99" value="" style="rounded=0;whiteSpace=wrap;html=1;strokeColor=#333333;fillColor=#B3B3B3;" parent="1" vertex="1">
                    <mxGeometry x="-170" y="620" width="100" height="50" as="geometry"/>
                </mxCell>
                <mxCell id="3TpX2DsgrMbCzZT64vuU-100" value="" style="rounded=0;whiteSpace=wrap;html=1;strokeColor=#333333;fillColor=#E6E6E6;" parent="1" vertex="1">
                    <mxGeometry x="-110" y="620" width="40" height="50" as="geometry"/>
                </mxCell>
                <mxCell id="14" value="" style="group" parent="1" vertex="1" connectable="0">
                    <mxGeometry x="-430" y="410" width="790" height="90" as="geometry"/>
                </mxCell>
                <mxCell id="3TpX2DsgrMbCzZT64vuU-35" value="" style="rounded=0;whiteSpace=wrap;html=1;strokeColor=#333333;fillColor=#B3B3B3;" parent="14" vertex="1">
                    <mxGeometry width="700" height="90" as="geometry"/>
                </mxCell>
                <mxCell id="3TpX2DsgrMbCzZT64vuU-33" value="" style="rounded=0;whiteSpace=wrap;html=1;strokeColor=#333333;fillColor=#B3B3B3;" parent="14" vertex="1">
                    <mxGeometry x="10" y="10" width="780" height="20" as="geometry"/>
                </mxCell>
                <mxCell id="3TpX2DsgrMbCzZT64vuU-36" value="" style="rounded=0;whiteSpace=wrap;html=1;fillColor=#4D4D4D;strokeColor=none;shadow=1;" parent="14" vertex="1">
                    <mxGeometry x="650" y="30" width="50" height="50" as="geometry"/>
                </mxCell>
                <mxCell id="3TpX2DsgrMbCzZT64vuU-37" value="" style="rounded=0;whiteSpace=wrap;html=1;fillColor=#4D4D4D;strokeColor=none;shadow=1;" parent="14" vertex="1">
                    <mxGeometry x="600" y="30" width="50" height="50" as="geometry"/>
                </mxCell>
                <mxCell id="3TpX2DsgrMbCzZT64vuU-38" value="" style="rounded=0;whiteSpace=wrap;html=1;fillColor=#4D4D4D;strokeColor=none;shadow=1;" parent="14" vertex="1">
                    <mxGeometry x="550" y="30" width="50" height="50" as="geometry"/>
                </mxCell>
                <mxCell id="3TpX2DsgrMbCzZT64vuU-39" value="" style="rounded=0;whiteSpace=wrap;html=1;fillColor=#4D4D4D;strokeColor=none;shadow=1;" parent="14" vertex="1">
                    <mxGeometry x="500" y="30" width="50" height="50" as="geometry"/>
                </mxCell>
                <mxCell id="3TpX2DsgrMbCzZT64vuU-40" value="" style="rounded=0;whiteSpace=wrap;html=1;fillColor=#4D4D4D;strokeColor=none;shadow=1;" parent="14" vertex="1">
                    <mxGeometry x="450" y="30" width="50" height="50" as="geometry"/>
                </mxCell>
                <mxCell id="3TpX2DsgrMbCzZT64vuU-41" value="" style="rounded=0;whiteSpace=wrap;html=1;strokeColor=#333333;fillColor=#B3B3B3;" parent="14" vertex="1">
                    <mxGeometry x="360" y="30" width="90" height="40" as="geometry"/>
                </mxCell>
                <mxCell id="3TpX2DsgrMbCzZT64vuU-43" value="" style="rounded=0;whiteSpace=wrap;html=1;strokeColor=#333333;fillColor=#B3B3B3;" parent="14" vertex="1">
                    <mxGeometry x="390" y="30" width="60" height="40" as="geometry"/>
                </mxCell>
                <mxCell id="3TpX2DsgrMbCzZT64vuU-45" value="" style="rounded=0;whiteSpace=wrap;html=1;strokeColor=#333333;fillColor=#B3B3B3;" parent="14" vertex="1">
                    <mxGeometry x="260" y="30" width="60" height="50" as="geometry"/>
                </mxCell>
                <mxCell id="3TpX2DsgrMbCzZT64vuU-46" value="" style="endArrow=none;html=1;rounded=0;exitX=0.993;exitY=0.798;exitDx=0;exitDy=0;exitPerimeter=0;strokeColor=#1A1A1A;" parent="14" source="3TpX2DsgrMbCzZT64vuU-45" edge="1">
                    <mxGeometry width="50" height="50" relative="1" as="geometry">
                        <mxPoint x="310" y="120" as="sourcePoint"/>
                        <mxPoint x="360" y="70" as="targetPoint"/>
                    </mxGeometry>
                </mxCell>
                <mxCell id="3TpX2DsgrMbCzZT64vuU-47" value="" style="rounded=0;whiteSpace=wrap;html=1;strokeColor=#333333;fillColor=#B3B3B3;" parent="14" vertex="1">
                    <mxGeometry x="260" y="30" width="20" height="50" as="geometry"/>
                </mxCell>
                <mxCell id="3TpX2DsgrMbCzZT64vuU-48" value="" style="rounded=0;whiteSpace=wrap;html=1;fillColor=#4D4D4D;strokeColor=none;shadow=1;" parent="14" vertex="1">
                    <mxGeometry x="210" y="30" width="50" height="50" as="geometry"/>
                </mxCell>
                <mxCell id="3TpX2DsgrMbCzZT64vuU-49" value="" style="rounded=0;whiteSpace=wrap;html=1;fillColor=#4D4D4D;strokeColor=none;shadow=1;" parent="14" vertex="1">
                    <mxGeometry x="160" y="30" width="50" height="50" as="geometry"/>
                </mxCell>
                <mxCell id="3TpX2DsgrMbCzZT64vuU-50" value="" style="rounded=0;whiteSpace=wrap;html=1;fillColor=#4D4D4D;strokeColor=none;shadow=1;" parent="14" vertex="1">
                    <mxGeometry x="110" y="30" width="50" height="50" as="geometry"/>
                </mxCell>
                <mxCell id="3TpX2DsgrMbCzZT64vuU-51" value="" style="rounded=0;whiteSpace=wrap;html=1;fillColor=#4D4D4D;strokeColor=none;shadow=1;" parent="14" vertex="1">
                    <mxGeometry x="60" y="30" width="50" height="50" as="geometry"/>
                </mxCell>
                <mxCell id="3TpX2DsgrMbCzZT64vuU-52" value="" style="rounded=0;whiteSpace=wrap;html=1;fillColor=#4D4D4D;strokeColor=none;shadow=1;" parent="14" vertex="1">
                    <mxGeometry x="10" y="30" width="50" height="50" as="geometry"/>
                </mxCell>
                <mxCell id="3TpX2DsgrMbCzZT64vuU-55" value="" style="rounded=0;whiteSpace=wrap;html=1;strokeColor=#333333;fillColor=#B3B3B3;" parent="14" vertex="1">
                    <mxGeometry x="360" y="45" width="30" height="25" as="geometry"/>
                </mxCell>
                <mxCell id="10" value="" style="rounded=0;whiteSpace=wrap;html=1;strokeColor=#333333;fillColor=#B3B3B3;glass=0;" parent="14" vertex="1">
                    <mxGeometry x="405" y="47.5" width="30" height="5" as="geometry"/>
                </mxCell>
                <mxCell id="17" value="" style="rounded=0;whiteSpace=wrap;html=1;fillColor=#4D4D4D;strokeColor=none;shadow=1;" vertex="1" parent="1">
                    <mxGeometry x="460" y="900" width="50" height="60" as="geometry"/>
                </mxCell>
                <mxCell id="16" value="" style="rounded=0;whiteSpace=wrap;html=1;fillColor=#4D4D4D;strokeColor=none;shadow=1;" vertex="1" parent="1">
                    <mxGeometry x="410" y="900" width="50" height="60" as="geometry"/>
                </mxCell>
                <mxCell id="15" value="" style="rounded=0;whiteSpace=wrap;html=1;fillColor=#4D4D4D;strokeColor=none;shadow=1;" vertex="1" parent="1">
                    <mxGeometry x="360" y="900" width="50" height="60" as="geometry"/>
                </mxCell>
                <mxCell id="18" value="" style="rounded=0;whiteSpace=wrap;html=1;strokeColor=#333333;fillColor=#B3B3B3;" vertex="1" parent="1">
                    <mxGeometry x="-110" y="930" width="30" height="30" as="geometry"/>
                </mxCell>
                <mxCell id="19" value="" style="rounded=0;whiteSpace=wrap;html=1;fillColor=#4D4D4D;strokeColor=none;shadow=1;" vertex="1" parent="1">
                    <mxGeometry x="-380" y="900" width="80" height="60" as="geometry"/>
                </mxCell>
                <mxCell id="20" value="" style="rounded=0;whiteSpace=wrap;html=1;fillColor=#4D4D4D;strokeColor=none;shadow=1;" vertex="1" parent="1">
                    <mxGeometry x="-200" y="960" width="20" height="10" as="geometry"/>
                </mxCell>
                <mxCell id="21" value="" style="rounded=0;whiteSpace=wrap;html=1;strokeColor=#333333;fillColor=#B3B3B3;glass=0;" vertex="1" parent="1">
                    <mxGeometry x="-140" y="868.75" width="20" height="2.5" as="geometry"/>
                </mxCell>
                <mxCell id="24" value="" style="rounded=0;whiteSpace=wrap;html=1;strokeColor=#333333;fillColor=#B3B3B3;" vertex="1" parent="1">
                    <mxGeometry x="-370" y="795" width="10" height="15" as="geometry"/>
                </mxCell>
                <mxCell id="26" value="" style="rounded=0;whiteSpace=wrap;html=1;strokeColor=#333333;fillColor=#B3B3B3;" vertex="1" parent="1">
                    <mxGeometry x="-370" y="750" width="10" height="45" as="geometry"/>
                </mxCell>
                <mxCell id="27" value="" style="rounded=0;whiteSpace=wrap;html=1;strokeColor=#333333;fillColor=#B3B3B3;" vertex="1" parent="1">
                    <mxGeometry x="-290" y="750" width="180" height="40" as="geometry"/>
                </mxCell>
                <mxCell id="28" value="" style="rounded=0;whiteSpace=wrap;html=1;fillColor=#4D4D4D;strokeColor=none;shadow=1;" vertex="1" parent="1">
                    <mxGeometry x="-80" y="800" width="30" height="80" as="geometry"/>
                </mxCell>
                <mxCell id="29" value="" style="rounded=0;whiteSpace=wrap;html=1;strokeColor=#333333;fillColor=#B3B3B3;" vertex="1" parent="1">
                    <mxGeometry x="-110" y="860" width="30" height="20" as="geometry"/>
                </mxCell>
                <mxCell id="30" value="" style="rounded=0;whiteSpace=wrap;html=1;strokeColor=#333333;fillColor=#B3B3B3;" vertex="1" parent="1">
                    <mxGeometry x="-360" y="750" width="70" height="20" as="geometry"/>
                </mxCell>
                <mxCell id="31" value="" style="rounded=0;whiteSpace=wrap;html=1;strokeColor=#333333;fillColor=#B3B3B3;" vertex="1" parent="1">
                    <mxGeometry x="-80" y="750" width="50" height="40" as="geometry"/>
                </mxCell>
                <mxCell id="32" value="" style="rounded=0;whiteSpace=wrap;html=1;strokeColor=#333333;fillColor=#B3B3B3;" vertex="1" parent="1">
                    <mxGeometry x="-30" y="750" width="50" height="40" as="geometry"/>
                </mxCell>
                <mxCell id="33" value="" style="rounded=0;whiteSpace=wrap;html=1;strokeColor=#333333;fillColor=#B3B3B3;" vertex="1" parent="1">
                    <mxGeometry x="-10" y="750" width="30" height="20" as="geometry"/>
                </mxCell>
                <mxCell id="35" value="" style="rounded=0;whiteSpace=wrap;html=1;fillColor=#4D4D4D;strokeColor=none;shadow=1;" vertex="1" parent="1">
                    <mxGeometry x="160" y="750" width="70" height="50" as="geometry"/>
                </mxCell>
                <mxCell id="37" value="" style="rounded=0;whiteSpace=wrap;html=1;fillColor=#4D4D4D;strokeColor=none;shadow=1;" vertex="1" parent="1">
                    <mxGeometry x="100" y="750" width="60" height="60" as="geometry"/>
                </mxCell>
                <mxCell id="39" value="" style="rounded=0;whiteSpace=wrap;html=1;fillColor=#4D4D4D;strokeColor=none;shadow=1;" vertex="1" parent="1">
                    <mxGeometry x="40" y="750" width="60" height="60" as="geometry"/>
                </mxCell>
                <mxCell id="38" value="" style="rounded=0;whiteSpace=wrap;html=1;fillColor=#4D4D4D;strokeColor=none;shadow=1;" vertex="1" parent="1">
                    <mxGeometry x="20" y="750" width="20" height="60" as="geometry"/>
                </mxCell>
                <mxCell id="40" value="" style="rounded=0;whiteSpace=wrap;html=1;strokeColor=#333333;fillColor=#B3B3B3;" vertex="1" parent="1">
                    <mxGeometry x="-370" y="730" width="630" height="20" as="geometry"/>
                </mxCell>
                <mxCell id="41" value="" style="rounded=0;whiteSpace=wrap;html=1;strokeColor=#333333;fillColor=#B3B3B3;" vertex="1" parent="1">
                    <mxGeometry x="-80" y="690" width="40" height="40" as="geometry"/>
                </mxCell>
                <mxCell id="43" value="" style="rounded=0;whiteSpace=wrap;html=1;fillColor=#4D4D4D;strokeColor=none;shadow=1;" vertex="1" parent="1">
                    <mxGeometry x="-235" y="690" width="25" height="40" as="geometry"/>
                </mxCell>
                <mxCell id="47" value="" style="rounded=0;whiteSpace=wrap;html=1;fillColor=#4D4D4D;strokeColor=none;shadow=1;" vertex="1" parent="1">
                    <mxGeometry x="-260" y="690" width="25" height="40" as="geometry"/>
                </mxCell>
                <mxCell id="48" value="" style="rounded=0;whiteSpace=wrap;html=1;strokeColor=#333333;fillColor=#B3B3B3;direction=south;" vertex="1" parent="1">
                    <mxGeometry x="-360" y="720" width="50" height="10" as="geometry"/>
                </mxCell>
                <mxCell id="49" value="" style="rounded=0;whiteSpace=wrap;html=1;strokeColor=#333333;fillColor=#B3B3B3;" vertex="1" parent="1">
                    <mxGeometry x="-370" y="690" width="10" height="40" as="geometry"/>
                </mxCell>
                <mxCell id="51" value="" style="rounded=0;whiteSpace=wrap;html=1;strokeColor=#333333;fillColor=#B3B3B3;" vertex="1" parent="1">
                    <mxGeometry x="-430" y="670" width="20" height="30" as="geometry"/>
                </mxCell>
                <mxCell id="52" value="" style="rounded=0;whiteSpace=wrap;html=1;strokeColor=#333333;fillColor=#B3B3B3;" vertex="1" parent="1">
                    <mxGeometry x="-410" y="690" width="50" height="10" as="geometry"/>
                </mxCell>
                <mxCell id="54" value="" style="rounded=0;whiteSpace=wrap;html=1;strokeColor=#333333;fillColor=#B3B3B3;" vertex="1" parent="1">
                    <mxGeometry x="-430" y="500" width="680" height="40" as="geometry"/>
                </mxCell>
                <mxCell id="55" value="" style="rounded=0;whiteSpace=wrap;html=1;strokeColor=#333333;fillColor=#B3B3B3;" vertex="1" parent="1">
                    <mxGeometry x="250" y="500" width="20" height="60" as="geometry"/>
                </mxCell>
                <mxCell id="57" value="" style="rounded=0;whiteSpace=wrap;html=1;strokeColor=#333333;fillColor=#B3B3B3;" vertex="1" parent="1">
                    <mxGeometry x="-220" y="540" width="470" height="20" as="geometry"/>
                </mxCell>
                <mxCell id="58" value="" style="rounded=0;whiteSpace=wrap;html=1;strokeColor=#333333;fillColor=#E6E6E6;" vertex="1" parent="1">
                    <mxGeometry x="220" y="500" width="30" height="40" as="geometry"/>
                </mxCell>
                <mxCell id="59" value="" style="rounded=0;whiteSpace=wrap;html=1;strokeColor=#333333;fillColor=#E6E6E6;" vertex="1" parent="1">
                    <mxGeometry x="170" y="500" width="80" height="20" as="geometry"/>
                </mxCell>
                <mxCell id="60" value="" style="rounded=0;whiteSpace=wrap;html=1;strokeColor=#333333;fillColor=#E6E6E6;" vertex="1" parent="1">
                    <mxGeometry x="30" y="500" width="110" height="40" as="geometry"/>
                </mxCell>
                <mxCell id="61" value="" style="rounded=0;whiteSpace=wrap;html=1;strokeColor=#333333;fillColor=#B3B3B3;" vertex="1" parent="1">
                    <mxGeometry x="70" y="500" width="20" height="20" as="geometry"/>
                </mxCell>
                <mxCell id="65" value="" style="rounded=0;whiteSpace=wrap;html=1;strokeColor=#333333;fillColor=#B3B3B3;" vertex="1" parent="1">
                    <mxGeometry x="-40" y="500" width="70" height="40" as="geometry"/>
                </mxCell>
                <mxCell id="66" value="" style="rounded=0;whiteSpace=wrap;html=1;strokeColor=#333333;fillColor=#B3B3B3;" vertex="1" parent="1">
                    <mxGeometry x="-110" y="500" width="70" height="40" as="geometry"/>
                </mxCell>
                <mxCell id="68" value="" style="rounded=0;whiteSpace=wrap;html=1;strokeColor=#333333;fillColor=#B3B3B3;" vertex="1" parent="1">
                    <mxGeometry x="-110" y="510" width="40" height="30" as="geometry"/>
                </mxCell>
                <mxCell id="44" value="" style="rounded=0;whiteSpace=wrap;html=1;strokeColor=#333333;fillColor=#E6E6E6;" vertex="1" parent="1">
                    <mxGeometry x="-390" y="500" width="280" height="40" as="geometry"/>
                </mxCell>
                <mxCell id="67" value="" style="rounded=0;whiteSpace=wrap;html=1;strokeColor=#333333;fillColor=#B3B3B3;" vertex="1" parent="1">
                    <mxGeometry x="-140" y="520" width="60" height="20" as="geometry"/>
                </mxCell>
                <mxCell id="69" value="" style="rounded=0;whiteSpace=wrap;html=1;strokeColor=#333333;fillColor=#B3B3B3;" vertex="1" parent="1">
                    <mxGeometry x="-190" y="520" width="50" height="20" as="geometry"/>
                </mxCell>
                <mxCell id="70" value="" style="rounded=0;whiteSpace=wrap;html=1;strokeColor=#333333;fillColor=#B3B3B3;" vertex="1" parent="1">
                    <mxGeometry x="-320" y="500" width="75" height="40" as="geometry"/>
                </mxCell>
                <mxCell id="73" value="" style="rounded=0;whiteSpace=wrap;html=1;strokeColor=#333333;fillColor=#B3B3B3;" vertex="1" parent="1">
                    <mxGeometry x="-370" y="540" width="150" height="10" as="geometry"/>
                </mxCell>
                <mxCell id="71" value="" style="rounded=0;whiteSpace=wrap;html=1;strokeColor=#333333;fillColor=#B3B3B3;" vertex="1" parent="1">
                    <mxGeometry x="-297.5" y="530" width="30" height="20" as="geometry"/>
                </mxCell>
                <mxCell id="74" value="" style="rounded=0;whiteSpace=wrap;html=1;strokeColor=#333333;fillColor=#B3B3B3;" vertex="1" parent="1">
                    <mxGeometry x="-340" y="500" width="40" height="20" as="geometry"/>
                </mxCell>
                <mxCell id="75" value="" style="rounded=0;whiteSpace=wrap;html=1;strokeColor=#333333;fillColor=#B3B3B3;" vertex="1" parent="1">
                    <mxGeometry x="-420" y="540" width="50" height="20" as="geometry"/>
                </mxCell>
                <mxCell id="76" value="" style="rounded=0;whiteSpace=wrap;html=1;strokeColor=#333333;fillColor=#B3B3B3;" vertex="1" parent="1">
                    <mxGeometry x="-420" y="560" width="50" height="40" as="geometry"/>
                </mxCell>
                <mxCell id="77" value="" style="rounded=0;whiteSpace=wrap;html=1;strokeColor=#333333;fillColor=#B3B3B3;" vertex="1" parent="1">
                    <mxGeometry x="-260" y="590" width="40" height="10" as="geometry"/>
                </mxCell>
                <mxCell id="78" value="" style="rounded=0;whiteSpace=wrap;html=1;strokeColor=#333333;fillColor=#B3B3B3;" vertex="1" parent="1">
                    <mxGeometry x="-220" y="560" width="30" height="40" as="geometry"/>
                </mxCell>
                <mxCell id="79" value="" style="rounded=0;whiteSpace=wrap;html=1;strokeColor=#333333;fillColor=#B3B3B3;" vertex="1" parent="1">
                    <mxGeometry x="-430" y="600" width="360" height="20" as="geometry"/>
                </mxCell>
                <mxCell id="81" value="" style="rounded=0;whiteSpace=wrap;html=1;strokeColor=#333333;fillColor=#B3B3B3;" vertex="1" parent="1">
                    <mxGeometry x="-430" y="540" width="10" height="60" as="geometry"/>
                </mxCell>
                <mxCell id="82" value="" style="rounded=0;whiteSpace=wrap;html=1;strokeColor=#333333;fillColor=#B3B3B3;" vertex="1" parent="1">
                    <mxGeometry x="-430" y="620" width="50" height="50" as="geometry"/>
                </mxCell>
                <mxCell id="83" value="" style="rounded=0;whiteSpace=wrap;html=1;strokeColor=#333333;fillColor=#B3B3B3;" vertex="1" parent="1">
                    <mxGeometry x="-410" y="670" width="30" height="20" as="geometry"/>
                </mxCell>
                <mxCell id="84" value="" style="rounded=0;whiteSpace=wrap;html=1;strokeColor=#333333;fillColor=#B3B3B3;" vertex="1" parent="1">
                    <mxGeometry x="-440" y="640" width="10" height="30" as="geometry"/>
                </mxCell>
                <mxCell id="85" value="" style="rounded=0;whiteSpace=wrap;html=1;strokeColor=#333333;fillColor=#B3B3B3;" vertex="1" parent="1">
                    <mxGeometry x="-430" y="640" width="30" height="30" as="geometry"/>
                </mxCell>
                <mxCell id="87" value="" style="rounded=0;whiteSpace=wrap;html=1;fillColor=#4D4D4D;strokeColor=none;shadow=1;" vertex="1" parent="1">
                    <mxGeometry x="-340" y="620" width="30" height="50" as="geometry"/>
                </mxCell>
                <mxCell id="86" value="" style="rounded=0;whiteSpace=wrap;html=1;fillColor=#4D4D4D;strokeColor=none;shadow=1;" vertex="1" parent="1">
                    <mxGeometry x="-370" y="620" width="30" height="50" as="geometry"/>
                </mxCell>
                <mxCell id="89" value="" style="edgeStyle=none;html=1;" edge="1" parent="1" source="88" target="79">
                    <mxGeometry relative="1" as="geometry"/>
                </mxCell>
                <mxCell id="88" value="" style="rounded=0;whiteSpace=wrap;html=1;strokeColor=#333333;fillColor=#B3B3B3;" vertex="1" parent="1">
                    <mxGeometry x="-310" y="620" width="40" height="50" as="geometry"/>
                </mxCell>
                <mxCell id="90" value="" style="rounded=0;whiteSpace=wrap;html=1;strokeColor=#333333;fillColor=#B3B3B3;" vertex="1" parent="1">
                    <mxGeometry x="-310" y="640" width="20" height="30" as="geometry"/>
                </mxCell>
                <mxCell id="91" value="" style="rounded=0;whiteSpace=wrap;html=1;strokeColor=#333333;fillColor=#B3B3B3;" vertex="1" parent="1">
                    <mxGeometry x="-270" y="620" width="50" height="50" as="geometry"/>
                </mxCell>
                <mxCell id="92" value="" style="rounded=0;whiteSpace=wrap;html=1;strokeColor=#333333;fillColor=#B3B3B3;" vertex="1" parent="1">
                    <mxGeometry x="-220" y="620" width="50" height="50" as="geometry"/>
                </mxCell>
                <mxCell id="93" value="" style="rounded=0;whiteSpace=wrap;html=1;strokeColor=#333333;fillColor=#B3B3B3;" vertex="1" parent="1">
                    <mxGeometry x="-220" y="660" width="30" height="10" as="geometry"/>
                </mxCell>
                <mxCell id="94" value="" style="rounded=0;whiteSpace=wrap;html=1;strokeColor=#333333;fillColor=#B3B3B3;" vertex="1" parent="1">
                    <mxGeometry x="-190" y="620" width="20" height="20" as="geometry"/>
                </mxCell>
                <mxCell id="96" value="" style="rounded=0;whiteSpace=wrap;html=1;fillColor=#4D4D4D;strokeColor=none;shadow=1;" vertex="1" parent="1">
                    <mxGeometry x="-140" y="620" width="30" height="50" as="geometry"/>
                </mxCell>
                <mxCell id="95" value="" style="rounded=0;whiteSpace=wrap;html=1;fillColor=#4D4D4D;strokeColor=none;shadow=1;" vertex="1" parent="1">
                    <mxGeometry x="-170" y="620" width="30" height="50" as="geometry"/>
                </mxCell>
                <mxCell id="97" value="" style="endArrow=none;html=1;rounded=0;strokeColor=#1A1A1A;shadow=0;entryX=1;entryY=0;entryDx=0;entryDy=0;exitX=1;exitY=1;exitDx=0;exitDy=0;" edge="1" parent="1" source="3TpX2DsgrMbCzZT64vuU-100" target="96">
                    <mxGeometry width="50" height="50" relative="1" as="geometry">
                        <mxPoint x="-100" y="645" as="sourcePoint"/>
                        <mxPoint x="-100" y="625" as="targetPoint"/>
                    </mxGeometry>
                </mxCell>
                <mxCell id="98" value="" style="endArrow=none;html=1;rounded=0;strokeColor=#1A1A1A;shadow=0;entryX=1;entryY=1;entryDx=0;entryDy=0;exitX=0;exitY=1;exitDx=0;exitDy=0;" edge="1" parent="1" source="3TpX2DsgrMbCzZT64vuU-100" target="79">
                    <mxGeometry width="50" height="50" relative="1" as="geometry">
                        <mxPoint x="-75.14" y="640" as="sourcePoint"/>
                        <mxPoint x="-75.14" y="620" as="targetPoint"/>
                    </mxGeometry>
                </mxCell>
                <mxCell id="99" value="" style="rounded=0;whiteSpace=wrap;html=1;strokeColor=#333333;fillColor=#B3B3B3;" vertex="1" parent="1">
                    <mxGeometry x="-70" y="540" width="30" height="20" as="geometry"/>
                </mxCell>
                <mxCell id="100" value="" style="rounded=0;whiteSpace=wrap;html=1;strokeColor=#333333;fillColor=#B3B3B3;" vertex="1" parent="1">
                    <mxGeometry x="-70" y="610" width="30" height="10" as="geometry"/>
                </mxCell>
                <mxCell id="101" value="" style="rounded=0;whiteSpace=wrap;html=1;strokeColor=#333333;fillColor=#B3B3B3;" vertex="1" parent="1">
                    <mxGeometry x="-70" y="600" width="20" height="20" as="geometry"/>
                </mxCell>
                <mxCell id="102" value="" style="rounded=0;whiteSpace=wrap;html=1;strokeColor=#333333;fillColor=#B3B3B3;" vertex="1" parent="1">
                    <mxGeometry x="-50" y="620" width="10" height="50" as="geometry"/>
                </mxCell>
            </root>
        </mxGraphModel>
    </diagram>
</mxfile>